<svg width="51" height="45" fill="none" xmlns="http://www.w3.org/2000/svg"><path d="M1.816 8.173h47.225a1.816 1.816 0 0 0 1.816-1.816v-4.54A1.816 1.816 0 0 0 49.041 0H1.816A1.816 1.816 0 0 0 0 1.816v4.541C0 7.36.813 8.173 1.816 8.173Zm0 18.164h47.225a1.816 1.816 0 0 0 1.816-1.817v-4.54a1.816 1.816 0 0 0-1.816-1.817H1.816A1.816 1.816 0 0 0 0 19.98v4.54c0 1.004.813 1.817 1.816 1.817Zm0 18.163h47.225a1.816 1.816 0 0 0 1.816-1.816v-4.541a1.816 1.816 0 0 0-1.816-1.816H1.816A1.816 1.816 0 0 0 0 38.143v4.54C0 43.688.813 44.5 1.816 44.5Z" fill="#fff"/></svg>