<svg width="61" height="59" viewBox="0 0 61 59" fill="none" xmlns="http://www.w3.org/2000/svg">
<path d="M25.6346 3.93603L28.622 0.948684C29.8869 -0.316228 31.9323 -0.316228 33.1837 0.948684L59.3432 27.0947C60.6081 28.3596 60.6081 30.405 59.3432 31.6564L33.1837 57.8159C31.9188 59.0808 29.8734 59.0808 28.622 57.8159L25.6346 54.8285C24.3563 53.5502 24.3832 51.4644 25.6885 50.2129L41.9036 34.7649H3.22956C1.43985 34.7649 0 33.325 0 31.5353V27.2292C0 25.4395 1.43985 23.9997 3.22956 23.9997H41.9036L25.6885 8.55161C24.3697 7.30015 24.3428 5.2144 25.6346 3.93603Z" fill="white"/>
</svg>
