<svg width="51" height="51" viewBox="0 0 51 51" fill="none" xmlns="http://www.w3.org/2000/svg">
<path d="M47.3571 20.0357H30.9643V3.64286C30.9643 1.63132 29.333 0 27.3214 0H23.6786C21.667 0 20.0357 1.63132 20.0357 3.64286V20.0357H3.64286C1.63132 20.0357 0 21.667 0 23.6786V27.3214C0 29.333 1.63132 30.9643 3.64286 30.9643H20.0357V47.3571C20.0357 49.3687 21.667 51 23.6786 51H27.3214C29.333 51 30.9643 49.3687 30.9643 47.3571V30.9643H47.3571C49.3687 30.9643 51 29.333 51 27.3214V23.6786C51 21.667 49.3687 20.0357 47.3571 20.0357Z" fill="#7497A1"/>
</svg>
