<svg width="46" height="36" viewBox="0 0 46 36" fill="none" xmlns="http://www.w3.org/2000/svg">
<path d="M22.3901 9.27994L7.66727 21.4059V34.4934C7.66727 34.8322 7.80189 35.1572 8.0415 35.3968C8.28111 35.6364 8.60609 35.771 8.94495 35.771L17.8935 35.7479C18.2313 35.7462 18.5546 35.6108 18.7928 35.3714C19.0311 35.132 19.1648 34.808 19.1648 34.4702V26.8273C19.1648 26.4884 19.2994 26.1634 19.539 25.9238C19.7786 25.6842 20.1036 25.5496 20.4425 25.5496H25.5532C25.892 25.5496 26.217 25.6842 26.4566 25.9238C26.6963 26.1634 26.8309 26.4884 26.8309 26.8273V34.4646C26.8303 34.6327 26.863 34.7993 26.927 34.9548C26.9909 35.1103 27.085 35.2516 27.2037 35.3706C27.3224 35.4897 27.4634 35.5842 27.6187 35.6486C27.7739 35.7131 27.9404 35.7463 28.1085 35.7463L37.0539 35.771C37.3928 35.771 37.7177 35.6364 37.9574 35.3968C38.197 35.1572 38.3316 34.8322 38.3316 34.4934V21.3971L23.6119 9.27994C23.4389 9.14046 23.2233 9.06439 23.001 9.06439C22.7788 9.06439 22.5632 9.14046 22.3901 9.27994ZM45.6463 17.5218L38.9704 12.019V0.95826C38.9704 0.704113 38.8695 0.460376 38.6897 0.280668C38.51 0.100959 38.2663 0 38.0122 0H33.5403C33.2861 0 33.0424 0.100959 32.8627 0.280668C32.683 0.460376 32.582 0.704113 32.582 0.95826V6.75653L25.4326 0.874412C24.7465 0.309821 23.8856 0.00112863 22.997 0.00112863C22.1085 0.00112863 21.2476 0.309821 20.5615 0.874412L0.347767 17.5218C0.250734 17.602 0.170454 17.7005 0.111514 17.8118C0.0525748 17.923 0.0161313 18.0448 0.00426598 18.1701C-0.00759936 18.2954 0.00534602 18.4218 0.0423624 18.5422C0.0793788 18.6625 0.139741 18.7743 0.219999 18.8713L2.2563 21.3468C2.33634 21.4442 2.43479 21.5247 2.54601 21.584C2.65724 21.6432 2.77905 21.6799 2.90448 21.692C3.02991 21.7041 3.15649 21.6913 3.27697 21.6544C3.39746 21.6175 3.50949 21.5572 3.60665 21.477L22.3901 6.00589C22.5632 5.86641 22.7788 5.79034 23.001 5.79034C23.2233 5.79034 23.4389 5.86641 23.6119 6.00589L42.3962 21.477C42.4932 21.5573 42.605 21.6176 42.7254 21.6546C42.8457 21.6916 42.9721 21.7046 43.0974 21.6927C43.2228 21.6809 43.3445 21.6444 43.4558 21.5855C43.567 21.5265 43.6655 21.4463 43.7457 21.3492L45.782 18.8737C45.8622 18.7762 45.9223 18.6637 45.9589 18.5429C45.9955 18.422 46.0078 18.2952 45.9952 18.1695C45.9826 18.0439 45.9453 17.922 45.8854 17.8108C45.8255 17.6997 45.7443 17.6014 45.6463 17.5218Z" fill="white"/>
</svg>
