<svg width="40" height="35" viewBox="0 0 40 35" fill="none" xmlns="http://www.w3.org/2000/svg">
<path d="M36.25 0H26.25C24.1797 0 22.5 1.67969 22.5 3.75V13.75C22.5 15.8203 24.1797 17.5 26.25 17.5H32.5V22.5C32.5 25.2578 30.2578 27.5 27.5 27.5H26.875C25.8359 27.5 25 28.3359 25 29.375V33.125C25 34.1641 25.8359 35 26.875 35H27.5C34.4063 35 40 29.4063 40 22.5V3.75C40 1.67969 38.3203 0 36.25 0ZM13.75 0H3.75C1.67969 0 0 1.67969 0 3.75V13.75C0 15.8203 1.67969 17.5 3.75 17.5H10V22.5C10 25.2578 7.75781 27.5 5 27.5H4.375C3.33594 27.5 2.5 28.3359 2.5 29.375V33.125C2.5 34.1641 3.33594 35 4.375 35H5C11.9063 35 17.5 29.4063 17.5 22.5V3.75C17.5 1.67969 15.8203 0 13.75 0Z" fill="white"/>
</svg>
