<svg width="27" height="38" viewBox="0 0 27 38" fill="none" xmlns="http://www.w3.org/2000/svg">
<path d="M24.9375 14.25H23.75C23.0939 14.25 22.5625 14.7814 22.5625 15.4375V19C22.5625 24.5516 17.7761 29.0062 12.1132 28.454C7.1777 27.9723 3.5625 23.5355 3.5625 18.577V15.4375C3.5625 14.7814 3.03109 14.25 2.375 14.25H1.1875C0.531406 14.25 0 14.7814 0 15.4375V18.4181C0 25.0711 4.74777 31.0019 11.2812 31.9029V34.4375H7.125C6.46891 34.4375 5.9375 34.9689 5.9375 35.625V36.8125C5.9375 37.4686 6.46891 38 7.125 38H19C19.6561 38 20.1875 37.4686 20.1875 36.8125V35.625C20.1875 34.9689 19.6561 34.4375 19 34.4375H14.8438V31.9311C21.205 31.0583 26.125 25.598 26.125 19V15.4375C26.125 14.7814 25.5936 14.25 24.9375 14.25ZM13.0625 26.125C16.9976 26.125 20.1875 22.9351 20.1875 19H13.8544C13.4173 19 13.0625 18.7343 13.0625 18.4062V17.2188C13.0625 16.8907 13.4173 16.625 13.8544 16.625H20.1875V14.25H13.8544C13.4173 14.25 13.0625 13.9843 13.0625 13.6562V12.4688C13.0625 12.1407 13.4173 11.875 13.8544 11.875H20.1875V9.5H13.8544C13.4173 9.5 13.0625 9.2343 13.0625 8.90625V7.71875C13.0625 7.3907 13.4173 7.125 13.8544 7.125H20.1875C20.1875 3.18992 16.9976 0 13.0625 0C9.12742 0 5.9375 3.18992 5.9375 7.125V19C5.9375 22.9351 9.12742 26.125 13.0625 26.125Z" fill="white"/>
</svg>
