<svg width="45" height="45" viewBox="0 0 45 45" fill="none" xmlns="http://www.w3.org/2000/svg">
<path d="M31.0295 22.5L43.8226 9.70696C45.3925 8.13707 45.3925 5.59176 43.8226 4.0206L40.9794 1.17741C39.4095 -0.392472 36.8642 -0.392472 35.293 1.17741L22.5 13.9705L9.70696 1.17741C8.13707 -0.392472 5.59176 -0.392472 4.0206 1.17741L1.17741 4.0206C-0.392472 5.59048 -0.392472 8.13579 1.17741 9.70696L13.9705 22.5L1.17741 35.293C-0.392472 36.8629 -0.392472 39.4082 1.17741 40.9794L4.0206 43.8226C5.59048 45.3925 8.13707 45.3925 9.70696 43.8226L22.5 31.0295L35.293 43.8226C36.8629 45.3925 39.4095 45.3925 40.9794 43.8226L43.8226 40.9794C45.3925 39.4095 45.3925 36.8642 43.8226 35.293L31.0295 22.5Z" fill="#7497A1"/>
</svg>
